<?xml version="1.0" encoding="utf-8"?>
<!-- Generator: Adobe Illustrator 23.0.0, SVG Export Plug-In . SVG Version: 6.00 Build 0)  -->
<svg version="1.1" baseProfile="tiny" id="Capa_1" xmlns="http://www.w3.org/2000/svg" xmlns:xlink="http://www.w3.org/1999/xlink"
	 x="0px" y="0px" viewBox="0 0 162 24" xml:space="preserve">
<g display="none">
	<image display="inline" width="162" height="24" xlink:href="BFB2A653.png" >
	</image>
</g>
<g>
	<g>
		<image width="33" height="22" xlink:href="BFB2A651.png"  transform="matrix(1 0 0 1 110 1)">
		</image>
		
			<path fill="none" stroke="#1C1B1A" stroke-width="1.9801" stroke-linecap="round" stroke-linejoin="round" stroke-miterlimit="10" d="
			M110.8,22.2c-0.1,0-0.1,0-0.1-0.1s0-0.1,0-0.1l0,0l0.9-0.9l0,0c0.6-0.6,0.9-1.3,0.9-2.1l0,0V4.6l0,0c0-1.7,1.3-3,3-3l0,0H140l0,0
			c1.7,0,3,1.3,3,3l0,0v14.6l0,0c0,1.7-1.3,3-3,3H110.8z"/>
	</g>
	<circle fill="#F4F3F2" cx="121.9" cy="11.9" r="2.8"/>
	<circle fill="#F4F3F2" cx="133.4" cy="9.1" r="0.6"/>
	<circle fill="#F4F3F2" cx="131.4" cy="9.9" r="0.6"/>
	<circle fill="#F4F3F2" cx="130.6" cy="11.9" r="0.6"/>
	<circle fill="#F4F3F2" cx="131.4" cy="13.9" r="0.6"/>
	<circle fill="#F4F3F2" cx="133.4" cy="14.7" r="0.6"/>
	<circle fill="#F4F3F2" cx="135.4" cy="13.9" r="0.6"/>
	<circle fill="#F4F3F2" cx="136.2" cy="11.9" r="0.6"/>
	<circle fill="#F4F3F2" cx="135.4" cy="9.9" r="0.6"/>
	<g>
		<g>
			<path fill="#1C1B1A" d="M22.5,19.3V5.8h5.6c1.7,0,3.1,0.3,4.2,0.9s2,1.4,2.6,2.4s0.9,2.1,0.9,3.4c0,1.4-0.3,2.6-0.9,3.6
				c-0.6,1-1.5,1.8-2.7,2.4s-2.5,0.9-4.1,0.9h-5.6V19.3z M33.2,12.5c0-0.9-0.2-1.7-0.6-2.4c-0.4-0.7-1-1.2-1.7-1.6
				c-0.7-0.4-1.7-0.6-2.8-0.6h-3v9.2h3c1.1,0,2.1-0.2,2.8-0.6c0.8-0.4,1.3-1,1.7-1.7C33,14.2,33.2,13.4,33.2,12.5z"/>
			<path fill="#1C1B1A" d="M44.5,19.5c-1.1,0-2-0.2-2.8-0.5c-0.8-0.4-1.6-0.8-2.2-1.5s-1.1-1.3-1.4-2.1c-0.3-0.8-0.5-1.6-0.5-2.5
				c0-1.2,0.3-2.4,0.9-3.4c0.6-1,1.4-1.8,2.4-2.4s2.3-0.9,3.6-0.9c1.4,0,2.6,0.3,3.6,0.9s1.8,1.4,2.4,2.4c0.6,1,0.8,2.1,0.8,3.2
				c0,0.2,0,0.4,0,0.6c0,0.2,0,0.3-0.1,0.4H40.5c0.1,0.8,0.3,1.4,0.7,2c0.4,0.6,0.9,1,1.5,1.3s1.2,0.5,1.9,0.5
				c0.8,0,1.5-0.2,2.2-0.5c0.7-0.4,1.1-0.8,1.4-1.4l2.4,0.7c-0.3,0.6-0.7,1.2-1.3,1.7s-1.3,0.9-2.1,1.2
				C46.3,19.4,45.4,19.5,44.5,19.5z M40.5,11.9h8.1c-0.1-0.7-0.3-1.4-0.7-2s-0.8-1-1.4-1.3c-0.6-0.3-1.2-0.5-1.9-0.5s-1.4,0.2-2,0.5
				s-1.1,0.8-1.4,1.3C40.7,10.5,40.5,11.2,40.5,11.9z"/>
			<path fill="#1C1B1A" d="M62.9,9.2C62.7,9,62.4,8.8,62,8.6s-0.9-0.4-1.5-0.5C60,8,59.4,7.9,58.8,7.9c-1,0-1.7,0.1-2.2,0.4
				c-0.5,0.3-0.7,0.7-0.7,1.2c0,0.4,0.1,0.7,0.4,0.9c0.3,0.2,0.7,0.4,1.3,0.6c0.6,0.2,1.2,0.3,2,0.5c1,0.2,1.9,0.5,2.7,0.8
				s1.3,0.7,1.7,1.2s0.6,1.2,0.6,2c0,0.7-0.1,1.3-0.4,1.8c-0.3,0.5-0.7,0.9-1.2,1.2c-0.5,0.3-1.1,0.6-1.8,0.7s-1.4,0.2-2.2,0.2
				c-1.2,0-2.3-0.2-3.4-0.5c-1.1-0.3-2.1-0.8-3-1.3l1.2-2.1c0.3,0.2,0.7,0.5,1.2,0.8s1.1,0.5,1.8,0.6s1.4,0.3,2.2,0.3
				c0.9,0,1.6-0.1,2.1-0.4s0.8-0.6,0.8-1.1c0-0.4-0.2-0.8-0.5-1c-0.4-0.3-0.8-0.5-1.4-0.6c-0.6-0.2-1.3-0.4-2.2-0.5
				c-1-0.2-1.8-0.5-2.5-0.8s-1.2-0.7-1.5-1.2s-0.5-1.1-0.5-1.8c0-0.9,0.2-1.6,0.7-2.3s1.2-1.1,2-1.4s1.8-0.5,2.8-0.5s2,0.1,2.9,0.4
				s1.7,0.6,2.3,1.1L62.9,9.2z"/>
			<path fill="#1C1B1A" d="M67.4,19.3V5.8H70v13.5H67.4z"/>
			<path fill="#1C1B1A" d="M73.7,19.3V5.8h5.6c1.7,0,3.1,0.3,4.2,0.9s2,1.4,2.6,2.4s0.9,2.1,0.9,3.4c0,1.4-0.3,2.6-0.9,3.6
				s-1.5,1.8-2.7,2.4s-2.5,0.9-4.1,0.9h-5.6V19.3z M84.4,12.5c0-0.9-0.2-1.7-0.6-2.4s-1-1.2-1.7-1.6c-0.7-0.4-1.7-0.6-2.8-0.6h-3
				v9.2h3c1.1,0,2.1-0.2,2.8-0.6c0.8-0.4,1.3-1,1.7-1.7C84.2,14.2,84.4,13.4,84.4,12.5z"/>
			<path fill="#1C1B1A" d="M95.7,19.5c-1.1,0-2-0.2-2.8-0.5s-1.6-0.8-2.2-1.5s-1.1-1.3-1.4-2.1c-0.3-0.8-0.5-1.6-0.5-2.5
				c0-1.2,0.3-2.4,0.9-3.4s1.4-1.8,2.4-2.4s2.3-0.9,3.6-0.9c1.4,0,2.6,0.3,3.6,0.9s1.8,1.4,2.4,2.4s0.8,2.1,0.8,3.2
				c0,0.2,0,0.4,0,0.6c0,0.2,0,0.3-0.1,0.4H91.7c0.1,0.8,0.3,1.4,0.7,2c0.4,0.6,0.9,1,1.5,1.3s1.2,0.5,1.9,0.5
				c0.8,0,1.5-0.2,2.2-0.5c0.7-0.4,1.1-0.8,1.4-1.4l2.4,0.7c-0.3,0.6-0.7,1.2-1.3,1.7s-1.3,0.9-2.1,1.2S96.6,19.5,95.7,19.5z
				 M91.7,11.9h8.1c-0.1-0.7-0.3-1.4-0.7-2c-0.4-0.6-0.8-1-1.4-1.3s-1.2-0.5-1.9-0.5c-0.7,0-1.4,0.2-2,0.5s-1.1,0.8-1.4,1.3
				C91.9,10.5,91.7,11.2,91.7,11.9z"/>
		</g>
	</g>
	<ellipse fill="#FFFFFF" cx="106.1" cy="22.2" rx="1" ry="1"/>
	
		<line fill="#1C1B1A" stroke="#1C1B1A" stroke-width="1.9801" stroke-linecap="round" stroke-miterlimit="10" x1="101.6" y1="22.2" x2="20.6" y2="22.2"/>
</g>
</svg>
