<?xml version="1.0" encoding="utf-8"?>
<!-- Generator: Adobe Illustrator 23.0.0, SVG Export Plug-In . SVG Version: 6.00 Build 0)  -->
<svg version="1.1" baseProfile="tiny" xmlns="http://www.w3.org/2000/svg" xmlns:xlink="http://www.w3.org/1999/xlink" x="0px"
	 y="0px" viewBox="0 0 162 24" xml:space="preserve">
<g id="Capa_1" display="none">
	<image display="inline" width="162" height="24" xlink:href="44144EC7.png" >
	</image>
</g>
<g id="Capa_2">
	<g>
		<image width="35" height="23" xlink:href="44144EC5.png"  transform="matrix(1 0 0 1 107 1)">
		</image>
	</g>
	<circle fill="#1C1B1A" cx="119.9" cy="12.4" r="2.8"/>
	<circle fill="#1C1B1A" cx="131.4" cy="9.5" r="0.6"/>
	<circle fill="#1C1B1A" cx="129.4" cy="10.4" r="0.6"/>
	<circle fill="#1C1B1A" cx="128.6" cy="12.3" r="0.6"/>
	<circle fill="#1C1B1A" cx="129.4" cy="14.3" r="0.6"/>
	<circle fill="#1C1B1A" cx="131.4" cy="15.2" r="0.6"/>
	<circle fill="#1C1B1A" cx="133.4" cy="14.3" r="0.6"/>
	<circle fill="#1C1B1A" cx="134.2" cy="12.3" r="0.6"/>
	<circle fill="#1C1B1A" cx="133.4" cy="10.4" r="0.6"/>
	<g>
		<g>
			<path fill="#F4F3F2" d="M20.5,19.8V6.2h5.6c1.7,0,3.1,0.3,4.2,0.9s2,1.4,2.6,2.4c0.6,1,0.9,2.1,0.9,3.4c0,1.4-0.3,2.6-0.9,3.6
				c-0.6,1-1.5,1.8-2.7,2.4c-1.2,0.6-2.5,0.9-4.1,0.9H20.5z M31.2,13c0-0.9-0.2-1.7-0.6-2.4c-0.4-0.7-1-1.2-1.7-1.6
				c-0.7-0.4-1.7-0.6-2.8-0.6h-3v9.2h3c1.1,0,2.1-0.2,2.8-0.6c0.8-0.4,1.3-1,1.7-1.7C31,14.7,31.2,13.9,31.2,13z"/>
			<path fill="#F4F3F2" d="M42.5,20c-1.1,0-2-0.2-2.8-0.5c-0.8-0.4-1.6-0.8-2.2-1.5s-1.1-1.3-1.4-2.1c-0.3-0.8-0.5-1.6-0.5-2.5
				c0-1.2,0.3-2.4,0.9-3.4c0.6-1,1.4-1.8,2.4-2.4c1-0.6,2.3-0.9,3.6-0.9c1.4,0,2.6,0.3,3.6,0.9c1,0.6,1.8,1.4,2.4,2.4
				c0.6,1,0.8,2.1,0.8,3.2c0,0.2,0,0.4,0,0.6c0,0.2,0,0.3-0.1,0.4H38.5c0.1,0.8,0.3,1.4,0.7,2c0.4,0.6,0.9,1,1.5,1.3
				c0.6,0.3,1.2,0.5,1.9,0.5c0.8,0,1.5-0.2,2.2-0.5c0.7-0.4,1.1-0.8,1.4-1.4l2.4,0.7c-0.3,0.6-0.7,1.2-1.3,1.7
				c-0.6,0.5-1.3,0.9-2.1,1.2C44.3,19.9,43.4,20,42.5,20z M38.5,12.4h8.1c-0.1-0.7-0.3-1.4-0.7-2c-0.4-0.6-0.8-1-1.4-1.3
				c-0.6-0.3-1.2-0.5-1.9-0.5c-0.7,0-1.4,0.2-2,0.5s-1.1,0.8-1.4,1.3C38.7,11,38.5,11.7,38.5,12.4z"/>
			<path fill="#F4F3F2" d="M60.9,9.6C60.7,9.4,60.4,9.2,60,9c-0.4-0.2-0.9-0.4-1.5-0.5c-0.5-0.1-1.1-0.2-1.7-0.2
				c-1,0-1.7,0.1-2.2,0.4C54.1,9,53.9,9.4,53.9,10c0,0.4,0.1,0.7,0.4,0.9c0.3,0.2,0.7,0.4,1.3,0.6c0.6,0.2,1.2,0.3,2,0.5
				c1,0.2,1.9,0.5,2.7,0.8c0.8,0.3,1.3,0.7,1.7,1.2c0.4,0.5,0.6,1.2,0.6,2c0,0.7-0.1,1.3-0.4,1.8c-0.3,0.5-0.7,0.9-1.2,1.2
				c-0.5,0.3-1.1,0.6-1.8,0.7s-1.4,0.2-2.2,0.2c-1.2,0-2.3-0.2-3.4-0.5c-1.1-0.3-2.1-0.8-3-1.3l1.2-2.1c0.3,0.2,0.7,0.5,1.2,0.8
				c0.5,0.3,1.1,0.5,1.8,0.6s1.4,0.3,2.2,0.3c0.9,0,1.6-0.1,2.1-0.4c0.5-0.3,0.8-0.6,0.8-1.1c0-0.4-0.2-0.8-0.5-1
				c-0.4-0.3-0.8-0.5-1.4-0.6c-0.6-0.2-1.3-0.4-2.2-0.5c-1-0.2-1.8-0.5-2.5-0.8c-0.7-0.3-1.2-0.7-1.5-1.2c-0.3-0.5-0.5-1.1-0.5-1.8
				c0-0.9,0.2-1.6,0.7-2.3s1.2-1.1,2-1.4c0.8-0.3,1.8-0.5,2.8-0.5s2,0.1,2.9,0.4c0.9,0.3,1.7,0.6,2.3,1.1L60.9,9.6z"/>
			<path fill="#F4F3F2" d="M65.4,19.8V6.3H68v13.5H65.4z"/>
			<path fill="#F4F3F2" d="M71.7,19.8V6.2h5.6c1.7,0,3.1,0.3,4.2,0.9c1.1,0.6,2,1.4,2.6,2.4c0.6,1,0.9,2.1,0.9,3.4
				c0,1.4-0.3,2.6-0.9,3.6c-0.6,1-1.5,1.8-2.7,2.4c-1.2,0.6-2.5,0.9-4.1,0.9H71.7z M82.4,13c0-0.9-0.2-1.7-0.6-2.4
				c-0.4-0.7-1-1.2-1.7-1.6c-0.7-0.4-1.7-0.6-2.8-0.6h-3v9.2h3c1.1,0,2.1-0.2,2.8-0.6c0.8-0.4,1.3-1,1.7-1.7
				C82.2,14.7,82.4,13.9,82.4,13z"/>
			<path fill="#F4F3F2" d="M93.7,20c-1.1,0-2-0.2-2.8-0.5s-1.6-0.8-2.2-1.5s-1.1-1.3-1.4-2.1c-0.3-0.8-0.5-1.6-0.5-2.5
				c0-1.2,0.3-2.4,0.9-3.4c0.6-1,1.4-1.8,2.4-2.4c1-0.6,2.3-0.9,3.6-0.9c1.4,0,2.6,0.3,3.6,0.9c1,0.6,1.8,1.4,2.4,2.4
				c0.6,1,0.8,2.1,0.8,3.2c0,0.2,0,0.4,0,0.6c0,0.2,0,0.3-0.1,0.4H89.7c0.1,0.8,0.3,1.4,0.7,2c0.4,0.6,0.9,1,1.5,1.3
				c0.6,0.3,1.2,0.5,1.9,0.5c0.8,0,1.5-0.2,2.2-0.5c0.7-0.4,1.1-0.8,1.4-1.4l2.4,0.7c-0.3,0.6-0.7,1.2-1.3,1.7s-1.3,0.9-2.1,1.2
				S94.6,20,93.7,20z M89.7,12.4h8.1c-0.1-0.7-0.3-1.4-0.7-2c-0.4-0.6-0.8-1-1.4-1.3c-0.6-0.3-1.2-0.5-1.9-0.5c-0.7,0-1.4,0.2-2,0.5
				s-1.1,0.8-1.4,1.3C89.9,11,89.7,11.7,89.7,12.4z"/>
		</g>
	</g>
	<ellipse fill="#F4F3F2" cx="104.1" cy="22.6" rx="1" ry="1"/>
	
		<line fill="#1C1B1A" stroke="#F4F3F2" stroke-width="1.9801" stroke-linecap="round" stroke-miterlimit="10" x1="99.6" y1="22.6" x2="18.6" y2="22.6"/>
</g>
</svg>
