<?xml version="1.0" encoding="utf-8"?>
<!-- Generator: Adobe Illustrator 23.0.0, SVG Export Plug-In . SVG Version: 6.00 Build 0)  -->
<svg version="1.1" baseProfile="tiny" xmlns="http://www.w3.org/2000/svg" xmlns:xlink="http://www.w3.org/1999/xlink" x="0px"
	 y="0px" viewBox="0 0 1500 500" xml:space="preserve">
<g id="Background" display="none">
	<rect y="0" display="inline" fill="#FC564F" width="1500" height="500"/>
</g>
<g id="Capa_7" display="none">
	<rect y="0" display="inline" width="1500" height="500"/>
</g>
<g id="DESIDE.__x28_letters_x29_" display="none">
	<g display="inline">
		<g>
			<path fill="#FFFFFF" d="M252.3,310.6v-111h45.8c13.9,0,25.4,2.5,34.8,7.5c9.3,5,16.3,11.6,21.1,19.9c4.8,8.3,7.1,17.5,7.1,27.8
				c0,11.2-2.6,21-7.8,29.3c-5.2,8.3-12.5,14.8-21.9,19.5c-9.5,4.7-20.5,7-33.3,7H252.3z M339.9,254.8c0-7.5-1.6-14-4.9-19.6
				c-3.3-5.6-8-10-14.1-13.2c-6.1-3.2-13.7-4.8-22.8-4.8h-24.6V293h24.6c9.2,0,16.9-1.6,23.1-4.9c6.2-3.3,10.8-7.8,14-13.6
				C338.3,268.7,339.9,262.1,339.9,254.8z"/>
			<path fill="#FFFFFF" d="M432.7,312.6c-8.7,0-16.5-1.5-23.3-4.4c-6.9-2.9-12.8-6.9-17.8-11.9c-5-5.1-8.9-10.9-11.7-17.4
				c-2.7-6.5-4.1-13.5-4.1-20.8c0-10.1,2.4-19.3,7.1-27.6c4.8-8.3,11.4-15,20.1-20c8.6-5,18.5-7.5,29.7-7.5
				c11.6,0,21.6,2.5,29.9,7.6c8.3,5,14.8,11.7,19.4,19.9c4.6,8.2,6.9,17,6.9,26.5c0,1.6-0.1,3.1-0.2,4.5c-0.1,1.4-0.3,2.5-0.4,3.3
				h-88.2c0.7,6.3,2.6,11.8,5.7,16.4c3.1,4.6,7.1,8.3,12,10.9c4.9,2.6,10.1,3.9,15.5,3.9c6.3,0,12.2-1.5,17.7-4.5
				c5.5-3,9.3-6.9,11.2-11.8l19.7,5.5c-2.4,5.2-6,9.8-10.9,14c-4.9,4.1-10.6,7.4-17.1,9.8C447.5,311.4,440.4,312.6,432.7,312.6z
				 M399.7,250.2h66.4c-0.6-6.1-2.3-11.5-5.4-16c-3-4.5-7-8.1-11.9-10.7c-4.9-2.6-10.2-3.9-16-3.9c-5.9,0-11.2,1.3-16.1,3.9
				s-8.8,6.2-11.9,10.7C401.9,238.7,400.2,244,399.7,250.2z"/>
			<path fill="#FFFFFF" d="M583.9,227.6c-1.7-1.7-4.3-3.4-7.8-5.1c-3.5-1.7-7.5-3.1-12-4.3c-4.5-1.2-9.2-1.8-14.1-1.8
				c-8,0-14,1.2-18,3.6s-6,5.8-6,10.2c0,3.2,1.2,5.7,3.5,7.6c2.3,1.9,5.8,3.4,10.4,4.7c4.6,1.3,10.2,2.7,16.8,4.3
				c8.5,1.7,15.9,3.9,22,6.4c6.2,2.5,10.9,5.8,14.3,9.8s5,9.5,5,16.4c0,5.7-1.2,10.7-3.7,14.8c-2.5,4.1-5.8,7.5-10,10.2
				c-4.2,2.7-9.1,4.6-14.7,5.8c-5.6,1.2-11.5,1.8-17.8,1.8c-9.5,0-18.8-1.3-27.8-3.9c-9-2.6-17.2-6.2-24.5-10.9l9.7-17
				c2.4,2,5.7,4.1,10,6.2c4.3,2.1,9.3,3.9,15,5.3c5.7,1.4,11.8,2.1,18.1,2.1c7.4,0,13.2-1.1,17.3-3.2c4.1-2.1,6.2-5.2,6.2-9.2
				c0-3.6-1.4-6.4-4.3-8.5c-2.9-2.1-6.8-3.8-11.8-5.3c-5-1.5-11-2.9-18.2-4.4c-8.3-1.9-15.1-4.1-20.5-6.6c-5.4-2.5-9.5-5.7-12.2-9.5
				c-2.7-3.8-4.1-8.6-4.1-14.5c0-7.3,2-13.5,6-18.5c4-5,9.5-8.8,16.4-11.3c6.9-2.5,14.7-3.8,23.2-3.8c8.5,0,16.4,1.2,23.7,3.5
				c7.3,2.3,13.6,5.3,18.9,8.9L583.9,227.6z"/>
			<path fill="#FFFFFF" d="M620.5,310.6V199.8h21.2v110.8H620.5z"/>
			<path fill="#FFFFFF" d="M672.3,310.6v-111h45.8c13.9,0,25.4,2.5,34.8,7.5c9.3,5,16.3,11.6,21.1,19.9c4.8,8.3,7.1,17.5,7.1,27.8
				c0,11.2-2.6,21-7.8,29.3c-5.2,8.3-12.5,14.8-21.9,19.5c-9.4,4.7-20.5,7-33.3,7H672.3z M759.9,254.8c0-7.5-1.6-14-4.9-19.6
				c-3.3-5.6-8-10-14.1-13.2c-6.1-3.2-13.7-4.8-22.8-4.8h-24.6V293h24.6c9.2,0,16.9-1.6,23.1-4.9c6.2-3.3,10.8-7.8,14-13.6
				C758.3,268.7,759.9,262.1,759.9,254.8z"/>
			<path fill="#FFFFFF" d="M852.7,312.6c-8.7,0-16.5-1.5-23.3-4.4c-6.9-2.9-12.8-6.9-17.9-11.9c-5-5.1-8.9-10.9-11.7-17.4
				c-2.7-6.5-4.1-13.5-4.1-20.8c0-10.1,2.4-19.3,7.1-27.6c4.8-8.3,11.4-15,20.1-20c8.6-5,18.5-7.5,29.7-7.5
				c11.6,0,21.6,2.5,29.9,7.6c8.3,5,14.8,11.7,19.4,19.9c4.6,8.2,6.9,17,6.9,26.5c0,1.6-0.1,3.1-0.2,4.5c-0.1,1.4-0.3,2.5-0.4,3.3
				h-88.2c0.7,6.3,2.6,11.8,5.7,16.4c3.1,4.6,7.1,8.3,12,10.9c4.9,2.6,10.1,3.9,15.5,3.9c6.3,0,12.2-1.5,17.7-4.5
				c5.5-3,9.3-6.9,11.2-11.8l19.7,5.5c-2.4,5.2-6,9.8-10.9,14c-4.9,4.1-10.6,7.4-17.1,9.8C867.5,311.4,860.4,312.6,852.7,312.6z
				 M819.7,250.2h66.4c-0.6-6.1-2.3-11.5-5.4-16c-3-4.5-7-8.1-11.9-10.7c-4.9-2.6-10.2-3.9-16-3.9c-5.9,0-11.2,1.3-16.1,3.9
				s-8.8,6.2-11.9,10.7C821.9,238.7,820.2,244,819.7,250.2z"/>
		</g>
	</g>
	<ellipse display="inline" fill="#FFFFFF" cx="938.1" cy="334" rx="8.4" ry="8.3"/>
	<linearGradient id="SVGID_1_" gradientUnits="userSpaceOnUse" x1="228.8775" y1="334" x2="909.1225" y2="334">
		<stop  offset="0" style="stop-color:#FFFFFF;stop-opacity:0.2"/>
		<stop  offset="6.886941e-02" style="stop-color:#FFFFFF;stop-opacity:0.2551"/>
		<stop  offset="1" style="stop-color:#FFFFFF"/>
	</linearGradient>
	
		<line display="inline" fill="none" stroke="url(#SVGID_1_)" stroke-width="16.245" stroke-linecap="round" stroke-miterlimit="10" x1="901" y1="334" x2="237" y2="334"/>
</g>
<g id="Capa_6" display="none">
	<g display="inline">
		<g>
			<path fill="#FFFFFF" d="M428.1,340.6v-73.5h30.3c9.2,0,16.8,1.7,23,5c6.2,3.3,10.8,7.7,14,13.2c3.1,5.5,4.7,11.6,4.7,18.4
				c0,7.4-1.7,13.9-5.1,19.4c-3.4,5.5-8.3,9.8-14.5,12.9c-6.3,3.1-13.6,4.6-22,4.6H428.1z M486.1,303.7c0-4.9-1.1-9.3-3.3-13
				c-2.2-3.7-5.3-6.6-9.3-8.7c-4-2.1-9.1-3.2-15.1-3.2h-16.3v50.2h16.3c6.1,0,11.2-1.1,15.3-3.2c4.1-2.2,7.2-5.2,9.2-9
				C485.1,312.9,486.1,308.5,486.1,303.7z"/>
			<path fill="#FFFFFF" d="M547.5,341.9c-5.7,0-10.9-1-15.4-2.9c-4.5-1.9-8.5-4.6-11.8-7.9c-3.3-3.4-5.9-7.2-7.7-11.5
				s-2.7-8.9-2.7-13.7c0-6.7,1.6-12.8,4.7-18.3c3.1-5.5,7.6-9.9,13.3-13.2c5.7-3.3,12.3-4.9,19.7-4.9c7.7,0,14.3,1.7,19.8,5
				c5.5,3.3,9.8,7.7,12.9,13.2c3.1,5.4,4.6,11.3,4.6,17.5c0,1.1,0,2.1-0.1,3c-0.1,0.9-0.2,1.7-0.3,2.2H526c0.5,4.2,1.7,7.8,3.8,10.9
				c2,3.1,4.7,5.5,7.9,7.2c3.2,1.7,6.7,2.6,10.3,2.6c4.2,0,8.1-1,11.7-3c3.7-2,6.1-4.6,7.4-7.8l13.1,3.6c-1.6,3.4-4,6.5-7.2,9.2
				c-3.2,2.7-7,4.9-11.3,6.5C557.3,341.1,552.6,341.9,547.5,341.9z M525.7,300.6h43.9c-0.4-4.1-1.6-7.6-3.5-10.6
				c-2-3-4.6-5.4-7.9-7.1c-3.2-1.7-6.8-2.6-10.6-2.6c-3.9,0-7.4,0.9-10.6,2.6c-3.2,1.7-5.8,4.1-7.9,7.1
				C527.1,293,526,296.6,525.7,300.6z"/>
			<path fill="#FFFFFF" d="M647.6,285.7c-1.1-1.1-2.8-2.3-5.1-3.4c-2.3-1.1-5-2.1-7.9-2.8c-3-0.8-6.1-1.2-9.3-1.2
				c-5.3,0-9.2,0.8-11.9,2.4c-2.6,1.6-4,3.8-4,6.8c0,2.1,0.8,3.8,2.3,5c1.5,1.2,3.8,2.3,6.9,3.1c3.1,0.8,6.8,1.8,11.1,2.8
				c5.7,1.1,10.5,2.6,14.6,4.2c4.1,1.7,7.2,3.8,9.5,6.5c2.2,2.6,3.3,6.3,3.3,10.9c0,3.8-0.8,7.1-2.4,9.8c-1.6,2.7-3.8,5-6.6,6.8
				c-2.8,1.8-6,3-9.7,3.8c-3.7,0.8-7.6,1.2-11.8,1.2c-6.3,0-12.4-0.9-18.4-2.6c-6-1.7-11.4-4.1-16.2-7.2l6.4-11.3
				c1.6,1.3,3.8,2.7,6.6,4.1c2.8,1.4,6.1,2.6,9.9,3.5c3.8,0.9,7.8,1.4,12,1.4c4.9,0,8.7-0.7,11.5-2.1c2.7-1.4,4.1-3.4,4.1-6.1
				c0-2.4-1-4.3-2.8-5.6c-1.9-1.4-4.5-2.5-7.8-3.5c-3.3-1-7.3-1.9-12-2.9c-5.5-1.2-10-2.7-13.6-4.4c-3.6-1.7-6.3-3.8-8.1-6.3
				c-1.8-2.5-2.7-5.7-2.7-9.6c0-4.9,1.3-8.9,4-12.2c2.6-3.3,6.3-5.8,10.8-7.5c4.6-1.7,9.7-2.5,15.4-2.5c5.7,0,10.9,0.8,15.7,2.3
				c4.8,1.5,9,3.5,12.5,5.9L647.6,285.7z"/>
			<path fill="#FFFFFF" d="M671.8,340.6v-73.3h14v73.3H671.8z"/>
			<path fill="#FFFFFF" d="M706.1,340.6v-73.5h30.3c9.2,0,16.8,1.7,23,5s10.8,7.7,14,13.2c3.1,5.5,4.7,11.6,4.7,18.4
				c0,7.4-1.7,13.9-5.1,19.4c-3.4,5.5-8.3,9.8-14.5,12.9c-6.3,3.1-13.6,4.6-22,4.6H706.1z M764.1,303.7c0-4.9-1.1-9.3-3.3-13
				c-2.2-3.7-5.3-6.6-9.3-8.7c-4-2.1-9.1-3.2-15.1-3.2h-16.3v50.2h16.3c6.1,0,11.2-1.1,15.3-3.2c4.1-2.2,7.2-5.2,9.2-9
				C763,312.9,764.1,308.5,764.1,303.7z"/>
			<path fill="#FFFFFF" d="M825.5,341.9c-5.7,0-10.9-1-15.4-2.9c-4.5-1.9-8.5-4.6-11.8-7.9c-3.3-3.4-5.9-7.2-7.7-11.5
				s-2.7-8.9-2.7-13.7c0-6.7,1.6-12.8,4.7-18.3c3.1-5.5,7.6-9.9,13.3-13.2c5.7-3.3,12.3-4.9,19.7-4.9c7.7,0,14.3,1.7,19.8,5
				c5.5,3.3,9.8,7.7,12.9,13.2c3.1,5.4,4.6,11.3,4.6,17.5c0,1.1,0,2.1-0.1,3c-0.1,0.9-0.2,1.7-0.3,2.2H804c0.5,4.2,1.7,7.8,3.8,10.9
				c2,3.1,4.7,5.5,7.9,7.2c3.2,1.7,6.7,2.6,10.3,2.6c4.2,0,8.1-1,11.7-3c3.7-2,6.1-4.6,7.4-7.8l13.1,3.6c-1.6,3.4-4,6.5-7.2,9.2
				c-3.2,2.7-7,4.9-11.3,6.5C835.3,341.1,830.6,341.9,825.5,341.9z M803.7,300.6h43.9c-0.4-4.1-1.6-7.6-3.5-10.6
				c-2-3-4.6-5.4-7.9-7.1c-3.2-1.7-6.8-2.6-10.6-2.6c-3.9,0-7.4,0.9-10.6,2.6c-3.2,1.7-5.8,4.1-7.9,7.1
				C805.1,293,804,296.6,803.7,300.6z"/>
		</g>
	</g>
	<ellipse display="inline" fill="#FFFFFF" cx="882" cy="356.1" rx="5.6" ry="5.5"/>
	<linearGradient id="SVGID_2_" gradientUnits="userSpaceOnUse" x1="412.6243" y1="356.0912" x2="862.8287" y2="356.0912">
		<stop  offset="0" style="stop-color:#FFFFFF;stop-opacity:0.2"/>
		<stop  offset="6.886941e-02" style="stop-color:#FFFFFF;stop-opacity:0.2551"/>
		<stop  offset="1" style="stop-color:#FFFFFF"/>
	</linearGradient>
	
		<line display="inline" fill="none" stroke="url(#SVGID_2_)" stroke-width="10.7514" stroke-linecap="round" stroke-miterlimit="10" x1="857.5" y1="356.1" x2="418" y2="356.1"/>
</g>
<g id="LOGO" display="none">
	<g display="inline">
		<image width="586" height="387" xlink:href="FF80EF14.png"  transform="matrix(0.48 0 0 0.48 967.2 156.96)">
		</image>
	</g>
	<circle display="inline" fill="#FC564F" cx="1068.1" cy="250" r="23.1"/>
	<circle display="inline" fill="#FC564F" cx="1162.4" cy="226.6" r="5.2"/>
	<circle display="inline" fill="#FC564F" cx="1146.1" cy="233.4" r="5.2"/>
	<circle display="inline" fill="#FC564F" cx="1139.3" cy="249.7" r="5.2"/>
	<circle display="inline" fill="#FC564F" cx="1146.1" cy="266" r="5.2"/>
	<circle display="inline" fill="#FC564F" cx="1162.4" cy="272.7" r="5.2"/>
	<circle display="inline" fill="#FC564F" cx="1178.7" cy="266" r="5.2"/>
	<circle display="inline" fill="#FC564F" cx="1185.4" cy="249.7" r="5.2"/>
	<circle display="inline" fill="#FC564F" cx="1178.7" cy="233.4" r="5.2"/>
</g>
<g id="Capa_5" display="none">
	<g display="inline">
		<image width="389" height="256" xlink:href="FF80EF1A.png"  transform="matrix(0.48 0 0 0.48 900.96 239.04)">
		</image>
	</g>
	<circle display="inline" cx="968.1" cy="300.5" r="15.3"/>
	<circle display="inline" cx="1030.4" cy="285" r="3.4"/>
	<circle display="inline" cx="1019.6" cy="289.5" r="3.4"/>
	<circle display="inline" cx="1015.2" cy="300.3" r="3.4"/>
	<circle display="inline" cx="1019.6" cy="311.1" r="3.4"/>
	<circle display="inline" cx="1030.4" cy="315.6" r="3.4"/>
	<circle display="inline" cx="1041.2" cy="311.1" r="3.4"/>
	<circle display="inline" cx="1045.7" cy="300.3" r="3.4"/>
	<circle display="inline" cx="1041.2" cy="289.5" r="3.4"/>
</g>
<g id="Capa_4" display="none">
	<g display="inline">
		<image width="227" height="150" xlink:href="FF80EF1B.png"  transform="matrix(0.48 0 0 0.48 837.6 215.04)">
		</image>
	</g>
	<circle display="inline" fill="#FC564F" cx="876.7" cy="251.1" r="8.9"/>
	<circle display="inline" fill="#FC564F" cx="913.1" cy="242.1" r="2"/>
	<circle display="inline" fill="#FC564F" cx="906.8" cy="244.7" r="2"/>
	<circle display="inline" fill="#FC564F" cx="904.2" cy="251" r="2"/>
	<circle display="inline" fill="#FC564F" cx="906.8" cy="257.2" r="2"/>
	<circle display="inline" fill="#FC564F" cx="913.1" cy="259.9" r="2"/>
	<circle display="inline" fill="#FC564F" cx="919.3" cy="257.2" r="2"/>
	<circle display="inline" fill="#FC564F" cx="922" cy="251" r="2"/>
	<circle display="inline" fill="#FC564F" cx="919.3" cy="244.7" r="2"/>
	<g display="inline">
		<g>
			<path fill="#FFFFFF" d="M561.9,274.4v-42.8h17.7c5.3,0,9.8,1,13.4,2.9c3.6,1.9,6.3,4.5,8.1,7.7c1.8,3.2,2.8,6.8,2.8,10.7
				c0,4.3-1,8.1-3,11.3c-2,3.2-4.8,5.7-8.5,7.5c-3.6,1.8-7.9,2.7-12.8,2.7H561.9z M595.7,252.9c0-2.9-0.6-5.4-1.9-7.6
				c-1.3-2.2-3.1-3.9-5.4-5.1s-5.3-1.9-8.8-1.9h-9.5v29.2h9.5c3.6,0,6.5-0.6,8.9-1.9c2.4-1.3,4.2-3,5.4-5.2
				C595.1,258.3,595.7,255.7,595.7,252.9z"/>
			<path fill="#FFFFFF" d="M631.5,275.2c-3.4,0-6.3-0.6-9-1.7c-2.6-1.1-4.9-2.7-6.9-4.6c-1.9-2-3.4-4.2-4.5-6.7
				c-1.1-2.5-1.6-5.2-1.6-8c0-3.9,0.9-7.4,2.8-10.7c1.8-3.2,4.4-5.8,7.7-7.7c3.3-1.9,7.1-2.9,11.5-2.9c4.5,0,8.3,1,11.5,2.9
				c3.2,1.9,5.7,4.5,7.5,7.7s2.7,6.6,2.7,10.2c0,0.6,0,1.2-0.1,1.8c-0.1,0.5-0.1,1-0.2,1.3h-34c0.3,2.4,1,4.5,2.2,6.3
				c1.2,1.8,2.7,3.2,4.6,4.2c1.9,1,3.9,1.5,6,1.5c2.4,0,4.7-0.6,6.8-1.7c2.1-1.2,3.6-2.7,4.3-4.6l7.6,2.1c-0.9,2-2.3,3.8-4.2,5.4
				c-1.9,1.6-4.1,2.9-6.6,3.8C637.2,274.8,634.5,275.2,631.5,275.2z M618.8,251.1h25.6c-0.2-2.4-0.9-4.4-2.1-6.2
				c-1.2-1.7-2.7-3.1-4.6-4.1c-1.9-1-3.9-1.5-6.2-1.5c-2.3,0-4.3,0.5-6.2,1.5c-1.9,1-3.4,2.4-4.6,4.1
				C619.6,246.7,619,248.8,618.8,251.1z"/>
			<path fill="#FFFFFF" d="M689.9,242.4c-0.6-0.7-1.6-1.3-3-2c-1.4-0.6-2.9-1.2-4.6-1.7c-1.7-0.5-3.5-0.7-5.4-0.7
				c-3.1,0-5.4,0.5-6.9,1.4c-1.5,0.9-2.3,2.2-2.3,3.9c0,1.2,0.4,2.2,1.3,2.9c0.9,0.7,2.2,1.3,4,1.8c1.8,0.5,3.9,1,6.5,1.7
				c3.3,0.7,6.1,1.5,8.5,2.5c2.4,1,4.2,2.2,5.5,3.8c1.3,1.5,1.9,3.7,1.9,6.3c0,2.2-0.5,4.1-1.4,5.7c-0.9,1.6-2.2,2.9-3.8,3.9
				s-3.5,1.8-5.7,2.2c-2.2,0.5-4.5,0.7-6.9,0.7c-3.7,0-7.3-0.5-10.7-1.5c-3.5-1-6.6-2.4-9.4-4.2l3.7-6.6c0.9,0.8,2.2,1.6,3.8,2.4
				c1.6,0.8,3.6,1.5,5.8,2c2.2,0.5,4.5,0.8,7,0.8c2.9,0,5.1-0.4,6.7-1.2c1.6-0.8,2.4-2,2.4-3.5c0-1.4-0.6-2.5-1.7-3.3
				c-1.1-0.8-2.6-1.5-4.5-2c-1.9-0.6-4.3-1.1-7-1.7c-3.2-0.7-5.8-1.6-7.9-2.5c-2.1-1-3.6-2.2-4.7-3.7c-1.1-1.5-1.6-3.3-1.6-5.6
				c0-2.8,0.8-5.2,2.3-7.1s3.6-3.4,6.3-4.4c2.7-1,5.7-1.5,9-1.5c3.3,0,6.3,0.5,9.2,1.4c2.8,0.9,5.2,2,7.3,3.4L689.9,242.4z"/>
			<path fill="#FFFFFF" d="M704,274.4v-42.8h8.2v42.8H704z"/>
			<path fill="#FFFFFF" d="M724,274.4v-42.8h17.7c5.3,0,9.8,1,13.4,2.9c3.6,1.9,6.3,4.5,8.1,7.7c1.8,3.2,2.8,6.8,2.8,10.7
				c0,4.3-1,8.1-3,11.3c-2,3.2-4.8,5.7-8.5,7.5c-3.6,1.8-7.9,2.7-12.8,2.7H724z M757.8,252.9c0-2.9-0.6-5.4-1.9-7.6
				s-3.1-3.9-5.4-5.1s-5.3-1.9-8.8-1.9h-9.5v29.2h9.5c3.6,0,6.5-0.6,8.9-1.9c2.4-1.3,4.2-3,5.4-5.2
				C757.2,258.3,757.8,255.7,757.8,252.9z"/>
			<path fill="#FFFFFF" d="M793.6,275.2c-3.3,0-6.3-0.6-9-1.7c-2.6-1.1-4.9-2.7-6.9-4.6s-3.4-4.2-4.5-6.7c-1.1-2.5-1.6-5.2-1.6-8
				c0-3.9,0.9-7.4,2.8-10.7c1.8-3.2,4.4-5.8,7.7-7.7c3.3-1.9,7.1-2.9,11.5-2.9c4.5,0,8.3,1,11.5,2.9c3.2,1.9,5.7,4.5,7.5,7.7
				s2.7,6.6,2.7,10.2c0,0.6,0,1.2-0.1,1.8c-0.1,0.5-0.1,1-0.2,1.3h-34c0.3,2.4,1,4.5,2.2,6.3c1.2,1.8,2.7,3.2,4.6,4.2
				c1.9,1,3.9,1.5,6,1.5c2.4,0,4.7-0.6,6.8-1.7c2.1-1.2,3.6-2.7,4.3-4.6l7.6,2.1c-0.9,2-2.3,3.8-4.2,5.4c-1.9,1.6-4.1,2.9-6.6,3.8
				C799.3,274.8,796.5,275.2,793.6,275.2z M780.9,251.1h25.6c-0.2-2.4-0.9-4.4-2.1-6.2c-1.2-1.7-2.7-3.1-4.6-4.1
				c-1.9-1-3.9-1.5-6.2-1.5c-2.3,0-4.3,0.5-6.2,1.5c-1.9,1-3.4,2.4-4.6,4.1C781.7,246.7,781,248.8,780.9,251.1z"/>
		</g>
	</g>
	<ellipse display="inline" fill="#FFFFFF" cx="826.5" cy="283.5" rx="3.2" ry="3.2"/>
	<linearGradient id="SVGID_3_" gradientUnits="userSpaceOnUse" x1="552.8659" y1="283.4886" x2="815.34" y2="283.4886">
		<stop  offset="0" style="stop-color:#FFFFFF;stop-opacity:0.2"/>
		<stop  offset="6.886941e-02" style="stop-color:#FFFFFF;stop-opacity:0.2551"/>
		<stop  offset="1" style="stop-color:#FFFFFF"/>
	</linearGradient>
	
		<line display="inline" fill="none" stroke="url(#SVGID_3_)" stroke-width="6.2682" stroke-linecap="round" stroke-miterlimit="10" x1="812.2" y1="283.5" x2="556" y2="283.5"/>
</g>
<g id="Capa_8">
	<g>
		<image width="852" height="562" xlink:href="FF80EF1D.png"  transform="matrix(0.48 0 0 0.48 1077.12 109.44)">
		</image>
	</g>
	<circle fill="#F8F6F4" cx="1226.6" cy="244.7" r="33.6"/>
	<circle fill="#F8F6F4" cx="1363.7" cy="210.7" r="7.6"/>
	<circle fill="#F8F6F4" cx="1339.9" cy="220.5" r="7.6"/>
	<circle fill="#F8F6F4" cx="1330.1" cy="244.3" r="7.6"/>
	<circle fill="#F8F6F4" cx="1339.9" cy="268" r="7.6"/>
	<circle fill="#F8F6F4" cx="1363.7" cy="277.8" r="7.6"/>
	<circle fill="#F8F6F4" cx="1387.4" cy="268" r="7.6"/>
	<circle fill="#F8F6F4" cx="1397.2" cy="244.3" r="7.6"/>
	<circle fill="#F8F6F4" cx="1387.4" cy="220.5" r="7.6"/>
	<g>
		<g>
			<path fill="#1C1B1A" stroke="#1C1B1A" stroke-miterlimit="10" d="M40.1,332.8V171.4h66.6c20.2,0,37,3.6,50.5,10.9
				c13.5,7.3,23.8,16.9,30.7,28.9c6.9,12,10.4,25.5,10.4,40.4c0,16.3-3.8,30.5-11.3,42.6c-7.5,12.1-18.2,21.6-31.9,28.4
				c-13.7,6.8-29.9,10.2-48.4,10.2H40.1z M167.4,251.7c0-10.9-2.4-20.4-7.2-28.5c-4.8-8.1-11.6-14.5-20.5-19.2
				c-8.9-4.7-19.9-7-33.1-7H70.9v110.2h35.7c13.4,0,24.6-2.4,33.6-7.1c9-4.7,15.7-11.3,20.3-19.8S167.4,262.3,167.4,251.7z"/>
			<path fill="#1C1B1A" stroke="#1C1B1A" stroke-miterlimit="10" d="M302.4,335.8c-12.6,0-23.9-2.1-33.9-6.3
				c-10-4.2-18.6-10-26-17.4c-7.3-7.4-13-15.8-17-25.3c-4-9.5-6-19.6-6-30.2c0-14.7,3.5-28.1,10.4-40.2
				c6.9-12.1,16.6-21.8,29.2-29.1c12.5-7.2,26.9-10.9,43.2-10.9c16.9,0,31.4,3.7,43.5,11c12.1,7.3,21.5,17,28.3,28.9
				c6.7,11.9,10.1,24.8,10.1,38.5c0,2.4-0.1,4.6-0.3,6.6c-0.2,2.1-0.4,3.7-0.6,4.8H255.1c1,9.2,3.8,17.1,8.2,23.9
				c4.5,6.7,10.3,12,17.4,15.8c7.1,3.8,14.7,5.7,22.6,5.7c9.2,0,17.8-2.2,25.8-6.5c8-4.3,13.5-10.1,16.3-17.2l28.7,8
				c-3.5,7.5-8.8,14.3-15.9,20.3c-7.1,6-15.4,10.8-24.9,14.2C324,334.1,313.6,335.8,302.4,335.8z M254.5,245H351
				c-0.8-8.9-3.4-16.7-7.8-23.3c-4.4-6.6-10.1-11.8-17.3-15.6c-7.1-3.8-14.9-5.7-23.2-5.7c-8.6,0-16.3,1.9-23.4,5.7
				c-7,3.8-12.8,9-17.3,15.6C257.6,228.3,255.1,236.1,254.5,245z"/>
			<path fill="#1C1B1A" stroke="#1C1B1A" stroke-miterlimit="10" d="M522.3,212.1c-2.4-2.5-6.2-5-11.3-7.4
				c-5.1-2.4-10.9-4.5-17.4-6.3c-6.5-1.7-13.3-2.6-20.5-2.6c-11.6,0-20.3,1.7-26.1,5.2s-8.7,8.4-8.7,14.8c0,4.7,1.7,8.3,5,11.1
				c3.4,2.7,8.4,5,15.1,6.8c6.7,1.8,14.9,3.9,24.4,6.3c12.4,2.5,23.1,5.6,32.1,9.3c9,3.7,15.9,8.4,20.8,14.3
				c4.9,5.8,7.3,13.8,7.3,23.9c0,8.3-1.8,15.5-5.3,21.5c-3.6,6-8.4,11-14.5,14.8c-6.1,3.9-13.2,6.7-21.4,8.4
				c-8.1,1.7-16.8,2.6-26,2.6c-13.8,0-27.3-1.9-40.5-5.7c-13.1-3.8-25-9.1-35.6-15.9l14.1-24.7c3.5,2.9,8.3,5.9,14.5,9
				c6.2,3.1,13.5,5.7,21.8,7.7c8.3,2,17.1,3.1,26.3,3.1c10.8,0,19.2-1.5,25.2-4.7c6-3.1,9-7.6,9-13.4c0-5.2-2.1-9.4-6.3-12.4
				c-4.2-3-9.9-5.6-17.1-7.7c-7.2-2.1-16-4.3-26.4-6.4c-12-2.7-21.9-5.9-29.8-9.6c-7.8-3.7-13.7-8.3-17.7-13.8s-6-12.6-6-21.1
				c0-10.7,2.9-19.6,8.7-26.9c5.8-7.3,13.7-12.7,23.8-16.4c10.1-3.7,21.3-5.5,33.8-5.5c12.4,0,23.9,1.7,34.5,5.1
				c10.6,3.4,19.7,7.7,27.5,12.9L522.3,212.1z"/>
			<path fill="#1C1B1A" stroke="#1C1B1A" stroke-miterlimit="10" d="M575.5,332.8V171.7h30.8v161.2H575.5z"/>
			<path fill="#1C1B1A" stroke="#1C1B1A" stroke-miterlimit="10" d="M650.9,332.8V171.4h66.6c20.2,0,37,3.6,50.5,10.9
				c13.5,7.3,23.8,16.9,30.7,28.9c6.9,12,10.4,25.5,10.4,40.4c0,16.3-3.8,30.5-11.3,42.6c-7.5,12.1-18.2,21.6-31.9,28.4
				c-13.7,6.8-29.9,10.2-48.4,10.2H650.9z M778.3,251.7c0-10.9-2.4-20.4-7.2-28.5c-4.8-8.1-11.6-14.5-20.5-19.2s-19.9-7-33.1-7
				h-35.7v110.2h35.7c13.4,0,24.6-2.4,33.6-7.1c9-4.7,15.7-11.3,20.3-19.8C776,271.9,778.3,262.3,778.3,251.7z"/>
			<path fill="#1C1B1A" stroke="#1C1B1A" stroke-miterlimit="10" d="M913.3,335.8c-12.6,0-23.9-2.1-33.9-6.3
				c-10-4.2-18.6-10-26-17.4c-7.3-7.4-13-15.8-17-25.3c-4-9.5-6-19.6-6-30.2c0-14.7,3.5-28.1,10.4-40.2
				c6.9-12.1,16.6-21.8,29.2-29.1c12.5-7.2,26.9-10.9,43.2-10.9c16.9,0,31.4,3.7,43.5,11c12.1,7.3,21.5,17,28.3,28.9
				s10.1,24.8,10.1,38.5c0,2.4-0.1,4.6-0.3,6.6c-0.2,2.1-0.4,3.7-0.6,4.8H866c1,9.2,3.8,17.1,8.2,23.9c4.5,6.7,10.3,12,17.4,15.8
				c7.1,3.8,14.7,5.7,22.6,5.7c9.2,0,17.8-2.2,25.8-6.5c8-4.3,13.5-10.1,16.3-17.2l28.7,8c-3.5,7.5-8.8,14.3-15.9,20.3
				c-7.1,6-15.4,10.8-24.9,14.2C934.8,334.1,924.5,335.8,913.3,335.8z M865.3,245h96.5c-0.8-8.9-3.4-16.7-7.8-23.3
				c-4.4-6.6-10.1-11.8-17.3-15.6c-7.1-3.8-14.9-5.7-23.2-5.7c-8.6,0-16.3,1.9-23.4,5.7c-7,3.8-12.8,9-17.3,15.6
				C868.5,228.3,866,236.1,865.3,245z"/>
		</g>
	</g>
	<ellipse fill="#1C1B1A" stroke="#1C1B1A" stroke-miterlimit="10" cx="1037.5" cy="366.9" rx="12.2" ry="12"/>
	
		<line fill="none" stroke="#1C1B1A" stroke-width="23.6276" stroke-linecap="round" stroke-miterlimit="10" x1="983.5" y1="366.9" x2="17.8" y2="366.9"/>
</g>
</svg>
