<?xml version="1.0" encoding="utf-8"?>
<!-- Generator: Adobe Illustrator 23.0.0, SVG Export Plug-In . SVG Version: 6.00 Build 0)  -->
<svg version="1.1" xmlns="http://www.w3.org/2000/svg" xmlns:xlink="http://www.w3.org/1999/xlink" x="0px" y="0px"
	 viewBox="0 0 162 25" style="enable-background:new 0 0 162 25;" xml:space="preserve">
<style type="text/css">
	.st0{display:none;}
	.st1{display:inline;}
	.st2{clip-path:url(#SVGID_2_);}
	.st3{fill:#F4F3F2;}
</style>
<g id="Capa_1" class="st0">
	<g class="st1">
		<defs>
			<rect id="SVGID_1_" x="0" y="0.8" width="161.3" height="24"/>
		</defs>
		<clipPath id="SVGID_2_">
			<use xlink:href="#SVGID_1_"  style="overflow:visible;"/>
		</clipPath>
		<g class="st2">
			<g>
				<defs>
					<rect id="SVGID_3_" x="0" y="0.8" width="161.3" height="24"/>
				</defs>
				<clipPath id="SVGID_4_">
					<use xlink:href="#SVGID_3_"  style="display:none;overflow:visible;"/>
				</clipPath>
			</g>
		</g>
	</g>
</g>
<g id="Capa_2">
	<path class="st3" d="M27.3,19.7l-4.4,4.7c-0.1,0.1-0.2,0.2-0.3,0.2c-0.1,0.1-0.3,0.1-0.4,0.1h-21c-0.1,0-0.2,0-0.3-0.1
		c-0.1-0.1-0.1-0.1-0.2-0.2c0-0.1-0.1-0.2,0-0.3c0-0.1,0.1-0.2,0.1-0.3l4.4-4.8C5.2,19.1,5.4,19,5.5,19c0.1-0.1,0.3-0.1,0.4-0.1h21
		c0.1,0,0.2,0,0.3,0.1c0.1,0.1,0.2,0.1,0.2,0.2c0,0.1,0.1,0.2,0,0.3C27.4,19.6,27.3,19.7,27.3,19.7z M22.8,10.2
		c-0.1-0.1-0.2-0.2-0.3-0.2c-0.1-0.1-0.3-0.1-0.4-0.1h-21c-0.1,0-0.2,0-0.3,0.1c-0.1,0.1-0.1,0.1-0.2,0.2c0,0.1-0.1,0.2,0,0.3
		c0,0.1,0.1,0.2,0.1,0.3l4.4,4.8c0.1,0.1,0.2,0.2,0.3,0.2c0.1,0.1,0.3,0.1,0.4,0.1h21c0.1,0,0.2,0,0.3-0.1c0.1-0.1,0.1-0.1,0.2-0.2
		c0-0.1,0.1-0.2,0-0.3c0-0.1-0.1-0.2-0.1-0.3L22.8,10.2z M1.1,6.8h21c0.1,0,0.3,0,0.4-0.1c0.1-0.1,0.2-0.1,0.3-0.2l4.4-4.7
		c0.1-0.1,0.1-0.2,0.1-0.3c0-0.1,0-0.2,0-0.3c0-0.1-0.1-0.2-0.2-0.2c-0.1-0.1-0.2-0.1-0.3-0.1h-21c-0.1,0-0.3,0-0.4,0.1
		C5.4,1,5.2,1,5.1,1.1L0.7,5.9C0.7,6,0.6,6.1,0.6,6.2c0,0.1,0,0.2,0,0.3c0,0.1,0.1,0.2,0.2,0.2C0.9,6.7,1,6.8,1.1,6.8z"/>
	<path class="st3" d="M52.7,10.9H41.5V7.2h14.1V3.5H41.5c-1,0-1.9,0.4-2.6,1.1c-0.7,0.7-1.1,1.6-1.1,2.6V11c0,0.5,0.1,1,0.3,1.4
		c0.2,0.4,0.5,0.9,0.8,1.2c0.7,0.7,1.6,1.1,2.6,1.1h11.2v3.7H38v3.7h14.7c1,0,1.9-0.4,2.6-1.1c0.7-0.7,1.1-1.6,1.1-2.6v-3.8
		c0-0.5-0.1-1-0.3-1.4s-0.5-0.9-0.8-1.2s-0.8-0.6-1.2-0.8C53.7,11,53.2,10.9,52.7,10.9z"/>
	<path class="st3" d="M74.5,3.5H63.2c-1,0-1.9,0.4-2.6,1.1c-0.7,0.7-1.1,1.6-1.1,2.6v11.3c0,1,0.4,1.9,1.1,2.6
		c0.7,0.7,1.6,1.1,2.6,1.1h11.3c0.5,0,1-0.1,1.4-0.3s0.9-0.5,1.2-0.8c0.3-0.3,0.6-0.8,0.8-1.2c0.2-0.4,0.3-0.9,0.3-1.4V7.2
		c0-0.5-0.1-1-0.3-1.4c-0.2-0.4-0.5-0.9-0.8-1.2c-0.3-0.3-0.8-0.6-1.2-0.8C75.4,3.6,75,3.5,74.5,3.5z M74.4,18.4H63.2V7.2h11.2V18.4
		z"/>
	<path class="st3" d="M113.9,3.5h-11c-0.5,0-1,0.1-1.4,0.3c-0.5,0.2-0.9,0.5-1.2,0.8c-0.3,0.3-0.6,0.8-0.8,1.2
		c-0.2,0.4-0.3,0.9-0.3,1.4v15h3.7V16h10.9v6.1h3.7v-15c0-1-0.4-1.9-1.1-2.6S114.9,3.5,113.9,3.5z M113.9,12.3H103V7.2h10.9V12.3z"
		/>
	<path class="st3" d="M157.6,3.5h-11c-1,0-1.9,0.4-2.6,1.1c-0.7,0.7-1.1,1.6-1.1,2.6v15h3.7V16h10.9v6.1h3.7v-15
		c0-0.5-0.1-1-0.3-1.4c-0.2-0.4-0.5-0.9-0.8-1.2c-0.3-0.3-0.8-0.6-1.2-0.8C158.6,3.6,158.1,3.5,157.6,3.5z M157.6,12.3h-10.9V7.2
		h10.9V12.3z"/>
	<path class="st3" d="M135.9,18.4h-1.5L129,5c-0.2-0.5-0.5-0.9-0.9-1.1c-0.4-0.3-0.9-0.4-1.4-0.4h-3.3c-0.7,0-1.3,0.3-1.7,0.7
		c-0.5,0.5-0.7,1.1-0.7,1.7v16.2h3.7V7.2h1.5l5.4,13.4c0.2,0.5,0.5,0.9,0.9,1.1s0.9,0.4,1.4,0.4h3.3c0.3,0,0.6-0.1,0.9-0.2
		c0.3-0.1,0.6-0.3,0.8-0.5c0.2-0.2,0.4-0.5,0.5-0.8s0.2-0.6,0.2-0.9V3.5h-3.7L135.9,18.4z"/>
	<path class="st3" d="M85.2,3.5h-3.7v15c0,1,0.4,1.9,1.1,2.6c0.7,0.7,1.6,1.1,2.6,1.1h11.2v-3.7H85.2V3.5z"/>
</g>
</svg>
