<?xml version="1.0" encoding="utf-8"?>
<!-- Generator: Adobe Illustrator 23.0.0, SVG Export Plug-In . SVG Version: 6.00 Build 0)  -->
<svg version="1.1" id="Capa_1" xmlns="http://www.w3.org/2000/svg" xmlns:xlink="http://www.w3.org/1999/xlink" x="0px" y="0px"
	 viewBox="0 0 313 281" style="enable-background:new 0 0 313 281;" xml:space="preserve">
<style type="text/css">
	.st0{clip-path:url(#SVGID_2_);}
	.st1{fill:#383838;}
</style>
<g>
	<defs>
		<rect id="SVGID_1_" width="312.9" height="280.4"/>
	</defs>
	<clipPath id="SVGID_2_">
		<use xlink:href="#SVGID_1_"  style="overflow:visible;"/>
	</clipPath>
	<g class="st0">
		<path class="st1" d="M311.3,221.1l-51.7,55.5c-1.1,1.2-2.5,2.2-4,2.8c-1.5,0.7-3.1,1-4.8,1H6c-1.2,0-2.3-0.3-3.3-1
			c-1-0.6-1.7-1.6-2.2-2.6c-0.5-1.1-0.6-2.3-0.4-3.4c0.2-1.2,0.7-2.2,1.5-3.1l51.7-55.5c1.1-1.2,2.5-2.2,4-2.8c1.5-0.7,3.1-1,4.8-1
			h244.9c1.2,0,2.3,0.3,3.3,1c1,0.6,1.7,1.6,2.2,2.6c0.5,1.1,0.6,2.3,0.4,3.4C312.6,219.1,312.1,220.2,311.3,221.1z M259.7,109.3
			c-1.1-1.2-2.5-2.2-4-2.8c-1.5-0.7-3.1-1-4.8-1H6c-1.2,0-2.3,0.3-3.3,1c-1,0.6-1.7,1.6-2.2,2.6c-0.5,1.1-0.6,2.3-0.4,3.4
			c0.2,1.2,0.7,2.2,1.5,3.1l51.7,55.5c1.1,1.2,2.5,2.2,4,2.8c1.5,0.7,3.1,1,4.8,1h244.9c1.2,0,2.3-0.3,3.3-1c1-0.6,1.7-1.6,2.2-2.6
			c0.5-1.1,0.6-2.3,0.4-3.4c-0.2-1.2-0.7-2.2-1.5-3.1L259.7,109.3z M6,69.4h244.9c1.6,0,3.3-0.3,4.8-1c1.5-0.7,2.9-1.6,4-2.8
			l51.7-55.5c0.8-0.9,1.3-1.9,1.5-3.1s0.1-2.3-0.4-3.4c-0.5-1.1-1.2-2-2.2-2.6c-1-0.6-2.1-1-3.3-1H62.1c-1.6,0-3.3,0.3-4.8,1
			c-1.5,0.7-2.9,1.6-4,2.8L1.6,59.3c-0.8,0.9-1.3,1.9-1.5,3.1c-0.2,1.2-0.1,2.3,0.4,3.4c0.5,1.1,1.2,2,2.2,2.6
			C3.7,69.1,4.8,69.4,6,69.4z"/>
	</g>
</g>
</svg>
